<svg width="42" height="46" viewBox="0 0 42 46" fill="none" xmlns="http://www.w3.org/2000/svg">
<path d="M21.0308 45.4358C19.6308 45.4358 18.2099 45.1224 17.1024 44.4746L5.60987 37.8507C0.929257 34.6955 0.636719 34.2149 0.636719 29.2626V17.185C0.636719 12.2327 0.908361 11.7521 5.50539 8.63866L17.0815 1.95207C19.2755 0.677436 22.7233 0.677436 24.9173 1.95207L36.4517 8.59687C41.1323 11.7521 41.4249 12.2327 41.4249 17.185V29.2417C41.4249 34.194 41.1532 34.6746 36.5562 37.788L24.98 44.4746C23.8517 45.1224 22.4308 45.4358 21.0308 45.4358ZM21.0308 4.14611C20.1531 4.14611 19.2964 4.31327 18.6905 4.6685L7.19794 11.3133C3.79195 13.6118 3.79195 13.6118 3.79195 17.185V29.2417C3.79195 32.8149 3.79195 32.8149 7.28152 35.1761L18.6905 41.7582C19.9233 42.4686 22.1591 42.4686 23.392 41.7582L34.8845 35.1134C38.2696 32.8149 38.2696 32.8149 38.2696 29.2417V17.185C38.2696 13.6118 38.2696 13.6118 34.7801 11.2506L23.3711 4.6685C22.7651 4.31327 21.9084 4.14611 21.0308 4.14611Z" fill="black"/>
<path d="M21.0312 31.0604C16.7058 31.0604 13.1953 27.5499 13.1953 23.2245C13.1953 18.8991 16.7058 15.3887 21.0312 15.3887C25.3566 15.3887 28.867 18.8991 28.867 23.2245C28.867 27.5499 25.3566 31.0604 21.0312 31.0604ZM21.0312 18.523C18.4401 18.523 16.3297 20.6335 16.3297 23.2245C16.3297 25.8156 18.4401 27.926 21.0312 27.926C23.6222 27.926 25.7327 25.8156 25.7327 23.2245C25.7327 20.6335 23.6222 18.523 21.0312 18.523Z" fill="black"/>
</svg>