<?xml version="1.0" encoding="UTF-8"?>
<svg xmlns="http://www.w3.org/2000/svg" xmlns:xlink="http://www.w3.org/1999/xlink" viewBox="0 0 25 25" width="25px" height="25px">
<g id="surface163039386">
<path style=" stroke:none;fill-rule:nonzero;fill:rgb(10.980392%,46.27451%,100%);fill-opacity:1;" d="M 10.832031 2.5 C 6.242188 2.5 2.5 6.242188 2.5 10.832031 C 2.5 15.425781 6.242188 19.167969 10.832031 19.167969 C 12.832031 19.167969 14.664062 18.457031 16.101562 17.28125 L 21.078125 22.253906 C 21.285156 22.472656 21.597656 22.5625 21.890625 22.484375 C 22.179688 22.410156 22.410156 22.179688 22.484375 21.890625 C 22.5625 21.597656 22.472656 21.285156 22.253906 21.078125 L 17.28125 16.101562 C 18.457031 14.664062 19.167969 12.832031 19.167969 10.832031 C 19.167969 6.242188 15.425781 2.5 10.832031 2.5 Z M 10.832031 4.167969 C 14.523438 4.167969 17.5 7.140625 17.5 10.832031 C 17.5 14.523438 14.523438 17.5 10.832031 17.5 C 7.140625 17.5 4.167969 14.523438 4.167969 10.832031 C 4.167969 7.140625 7.140625 4.167969 10.832031 4.167969 Z M 10.832031 4.167969 "/>
</g>
</svg>
