<svg xmlns="http://www.w3.org/2000/svg" fill="none" viewBox="0 0 42 42">
    <mask id="aud_svg__mask0_3145_261527" width="42" height="42" x="0" y="0" maskUnits="userSpaceOnUse" style="mask-type:alpha">
        <circle cx="21" cy="21" r="21" fill="#D9D9D9"/>
    </mask>
    <g mask="url(#aud_svg__mask0_3145_261527)">
        <path fill="#00008B" d="M67 0H-17V42H67V0Z"/>
        <g clip-path="url(#aud_svg__clip0_3145_261527)">
            <path fill="black" d="M-16.9995 0L25.0005 21L-16.9995 0ZM25.0005 0L-16.9995 21L25.0005 0Z"/>
            <path stroke="white" stroke-width="4.2" d="M-16.9995 0L25.0005 21M25.0005 0L-16.9995 21"/>
            <path fill="black" d="M-16.9995 0L25.0005 21L-16.9995 0ZM25.0005 0L-16.9995 21L25.0005 0Z"/>
            <path stroke="#FF0000" stroke-width="2.8" d="M-16.9995 0L25.0005 21M25.0005 0L-16.9995 21"/>
            <path fill="black" d="M4.00049 0V21V0ZM-16.9995 10.5H25.0005H-16.9995Z"/>
            <path stroke="white" stroke-width="7" d="M4.00049 0V21M-16.9995 10.5H25.0005"/>
            <path fill="black" d="M4.00049 0V21V0ZM-16.9995 10.5H25.0005H-16.9995Z"/>
            <path stroke="#FF0000" stroke-width="4.2" d="M4.00049 0V21M-16.9995 10.5H25.0005"/>
        </g>
        <path fill="white" d="M3.99947 25.1992L5.21434 28.9765L8.92501 27.5712L6.72927 30.8762L10.1415 32.9011L6.1886 33.245L6.73294 37.1753L3.99947 34.2992L1.266 37.1753L1.81034 33.245L-2.14258 32.9011L1.26967 30.8762L-0.92607 27.5712L2.78459 28.9765L3.99947 25.1992Z"/>
        <path fill="white" d="M35.4971 15.376L36.0756 17.1747L37.8425 16.5055L36.797 18.0793L38.4218 19.0435L36.5395 19.2073L36.7987 21.0789L35.4971 19.7093L34.1954 21.0789L34.4546 19.2073L32.5723 19.0435L34.1971 18.0793L33.1516 16.5055L34.9185 17.1747L35.4971 15.376Z"/>
    </g>
    <defs>
        <clipPath id="aud_svg__clip0_3145_261527">
            <rect width="35.3719" height="21" fill="white" transform="translate(-10.5039)"/>
        </clipPath>
    </defs>
</svg>
