<svg xmlns="http://www.w3.org/2000/svg" fill="none" viewBox="0 0 42 42">
    <path fill="#B02728" d="M21 41C32.0457 41 41 32.0457 41 21C41 9.9543 32.0457 1 21 1C9.9543 1 1 9.9543 1 21C1 32.0457 9.9543 41 21 41Z"/>
    <circle cx="10.8998" cy="10.8998" r="1.6" fill="#F3F3F3"/>
    <circle cx="16.1" cy="22.3002" r="1.6" fill="#F3F3F3"/>
    <circle cx="31.1" cy="10.8998" r="1.6" fill="#F3F3F3"/>
    <circle cx="25.8002" cy="22.3002" r="1.6" fill="#F3F3F3"/>
    <circle cx="21.1" cy="34.1" r="1.6" fill="#F3F3F3"/>
    <path stroke="#F3F3F3" d="M11 11H31M11 11L26 22.75M11 11L16 22.75M31 11L26 22.75M31 11L16 22.75M26 22.75L21 34.5L16 22.75"/>
</svg>
