<svg xmlns="http://www.w3.org/2000/svg" fill="none" viewBox="0 0 42 42">
    <mask id="cny_svg__mask0_3145_261482" width="42" height="42" x="0" y="0" maskUnits="userSpaceOnUse" style="mask-type:alpha">
        <circle cx="21" cy="21" r="21" fill="#D9D9D9"/>
    </mask>
    <g mask="url(#cny_svg__mask0_3145_261482)">
        <path fill="#EE1C25" d="M63 0H0V42H63V0Z"/>
        <path fill="#FFFF00" d="M10.4985 4.2041L14.2015 15.6009L4.50684 8.55729H16.4902L6.79545 15.6009L10.4985 4.2041Z"/>
        <path fill="#FFFF00" d="M21.8228 2.2581L21.4722 6.23712L19.417 2.81192L23.093 4.37499L19.2003 5.27108L21.8228 2.2581Z"/>
        <path fill="#FFFF00" d="M26.7075 6.92962L24.8403 10.4607L24.2754 6.50646L27.0567 9.37351L23.1213 8.68881L26.7075 6.92962Z"/>
        <path fill="#FFFF00" d="M27.1707 13.9757L24.0254 16.4379L25.1228 12.5972L26.4925 16.3494L23.1788 14.1189L27.1707 13.9757Z"/>
        <path fill="#FFFF00" d="M21.7409 16.9263L21.5555 20.9165L19.3601 17.5794L23.0977 18.9887L19.2455 20.0455L21.7409 16.9263Z"/>
    </g>
</svg>
