<svg xmlns="http://www.w3.org/2000/svg" fill="none" viewBox="0 0 42 42">
    <circle cx="21" cy="21" r="20" fill="#103F68"/>
    <path stroke="#F3F3F3" stroke-width="1.5" d="M9.62564 14.433L21 7.86603L32.3744 14.433V27.567L21 34.134L9.62564 27.567V14.433Z"/>
    <path fill="#F3F3F3" d="M25.5 13.3008H16.5L15.5 17.8008H26.5L25.5 13.3008Z"/>
    <path fill="#F3F3F3" d="M24 18.9H18L19 21V24.2H23V21L24 18.9Z"/>
    <path fill="#F3F3F3" d="M15 19.5L12 22L16.5 29.5H18L20 27.5V26.5L18 25V21.5L15 19.5Z"/>
    <path fill="#F3F3F3" d="M27 19.5L30 22L25.5 29.5H24L22 27.5V26.5L24 25V21.5L27 19.5Z"/>
</svg>
