<svg xmlns="http://www.w3.org/2000/svg" fill="none" viewBox="0 0 42 42">
    <circle cx="21" cy="21" r="20" fill="#F3F3F3"/>
    <rect width="3" height="6.5" x="12" y="14.5" fill="#00DCA0"/>
    <rect width="3" height="6.5" x="14" y="12.5" fill="#0082FF"/>
    <rect width="3" height="3" x="18.5" y="10" fill="#0082FF"/>
    <rect width="3" height="3" x="22.5" y="13.5" fill="#0082FF"/>
    <rect width="3" height="3" x="24.5" y="15.5" fill="#0082FF"/>
    <rect width="3" height="6.5" x="12" y="21" fill="#FEB900"/>
    <rect width="3" height="6.5" x="14" y="23" fill="#FEB900"/>
    <rect width="3" height="3" x="18.5" y="28.5" fill="#FF4852"/>
    <rect width="3" height="3" x="22.5" y="25.5" fill="#FF4852"/>
    <rect width="3" height="3" x="24.5" y="23.5" fill="#FF4852"/>
    <path fill="#030303" d="M29.5 18.5H25.5V16.5H23.5V14.5H19V16.5H17V25.5H19V27.5H23.5V25.5H25.5V23.5H29.5V27.5H27.5V29.5H23.5V31.5H19.5V29.5H15V27.5H13V14.5H15V12.5H19.5V10H23.5V12.5H27.5V14.5H29.5V18.5Z"/>
</svg>
