<svg xmlns="http://www.w3.org/2000/svg" fill="none" viewBox="0 0 42 42">
    <circle cx="21" cy="21" r="20" fill="#19263B"/>
    <path fill="#39F2B1" d="M22.3647 9V14.7751L27.3789 11.8913L22.3647 9Z"/>
    <path fill="#39F2B1" d="M27.3794 11.8916V17.6667L32.3925 14.7755L27.3794 11.8916Z" opacity="0.9"/>
    <path fill="#39F2B1" d="M22.3647 14.7754V20.5505L27.3789 17.6667L22.3647 14.7754ZM27.3789 17.6667V23.4418L32.3921 20.5505L27.3789 17.6667Z" opacity="0.8"/>
    <path fill="#39F2B1" d="M22.3647 20.5498V26.3249L27.3789 23.4411L22.3647 20.5498Z" opacity="0.8"/>
    <path fill="#39F2B1" d="M27.3794 23.4424V29.2175L32.3925 26.3262L27.3794 23.4424Z"/>
    <path fill="#39F2B1" d="M9.40576 14.5811V20.3562L14.42 17.4649L9.40576 14.5811Z" opacity="0.4"/>
    <path fill="#39F2B1" d="M15.731 16.7275V22.5027L20.7367 19.6188L15.731 16.7275Z" opacity="0.2"/>
    <path fill="#39F2B1" d="M12.0146 20.3799V26.155L17.0278 23.2637L12.0146 20.3799Z" opacity="0.3"/>
    <path fill="#39F2B1" d="M15.3184 24.7383V30.5134L20.3241 27.6221L15.3184 24.7383Z" opacity="0.9"/>
    <path fill="#39F2B1" d="M22.3247 27.2236V32.9998L27.3304 30.1075L22.3247 27.2236Z" opacity="0.7"/>
    <path fill="#39F2B1" d="M16.5659 13.876V19.6521L21.5717 16.7683L16.5659 13.876Z" opacity="0.9"/>
    <path fill="#39F2B1" d="M22.3658 9V14.7751L17.3516 11.8913L22.3658 9Z" opacity="0.8"/>
    <path fill="#39F2B1" d="M16.5655 11.4561V17.2301L11.5503 14.3388L16.5655 11.4561Z" opacity="0.6"/>
    <path fill="#39F2B1" d="M21.5801 14.3125V20.0887L16.5659 17.1964L21.5801 14.3125Z" opacity="0.6"/>
    <path fill="#39F2B1" d="M15.708 16.7275V22.5027L10.6938 19.6188L15.708 16.7275Z" opacity="0.95"/>
    <path fill="#39F2B1" d="M22.3656 20.5498V26.3249L17.3599 23.4411L22.3656 20.5498Z" opacity="0.6"/>
    <path fill="#39F2B1" d="M12.0142 21.8945V27.6696L7 24.7773L12.0142 21.8945Z" opacity="0.55"/>
    <path fill="#39F2B1" d="M32.3925 14.7754V20.5505L27.3794 17.6667L32.3925 14.7754Z"/>
    <path fill="#39F2B1" d="M27.3789 17.668V23.442L22.3647 20.5508L27.3789 17.668Z" opacity="0.95"/>
    <path fill="#39F2B1" d="M32.3925 20.5498V26.3249L27.3794 23.4411L32.3925 20.5498Z" opacity="0.9"/>
    <path fill="#39F2B1" d="M27.3789 23.4424V29.2175L22.3647 26.3262L27.3789 23.4424Z" opacity="0.7"/>
    <path fill="#39F2B1" d="M21.2558 25.8477V31.6228L16.2427 28.7389L21.2558 25.8477Z" opacity="0.4"/>
    <path fill="#39F2B1" d="M27.3789 11.8916V17.6667L22.3647 14.7755L27.3789 11.8916Z"/>
</svg>
