<svg xmlns="http://www.w3.org/2000/svg" fill="none" viewBox="0 0 42 42">
    <mask id="nzd_svg__mask0_3145_261574" width="42" height="42" x="0" y="0" maskUnits="userSpaceOnUse" style="mask-type:alpha">
        <circle cx="21" cy="21" r="21" fill="#D9D9D9"/>
    </mask>
    <g mask="url(#nzd_svg__mask0_3145_261574)">
        <path fill="#012169" d="M67 0H-17V42H67V0Z"/>
        <path fill="white" stroke="#F3F3F3" stroke-width="0.21" d="M36.4032 15.7483L36.3033 15.441L36.2035 15.7483L35.69 17.3286H34.0283H33.7052L33.9666 17.5186L35.3109 18.4953L34.7974 20.0756L34.6976 20.383L34.959 20.193L36.3033 19.2163L37.6476 20.193L37.9091 20.383L37.8092 20.0756L37.2957 18.4953L38.64 17.5186L38.9015 17.3286H38.5783H36.9167L36.4032 15.7483Z"/>
        <path fill="#C8102E" d="M36.3101 15.8936L37.6473 20.0091L34.1465 17.4655H38.4738L34.9729 20.0091L35.6415 17.9513L36.3101 15.8936Z"/>
        <g clip-path="url(#nzd_svg__clip0_3145_261574)">
            <path fill="black" d="M-16.9995 0L25.0005 21L-16.9995 0ZM-16.9995 21L25.0005 0L-16.9995 21Z"/>
            <path stroke="white" stroke-width="4.2" d="M-16.9995 0L25.0005 21M-16.9995 21L25.0005 0"/>
            <path fill="black" d="M-16.9995 0L25.0005 21L-16.9995 0ZM-16.9995 21L25.0005 0L-16.9995 21Z"/>
            <path stroke="#C8102E" stroke-width="2.8" d="M-16.9995 0L25.0005 21M-16.9995 21L25.0005 0"/>
            <path fill="black" d="M4.00098 0V21V0ZM-16.999 10.5H25.001H-16.999Z"/>
            <path stroke="white" stroke-width="7" d="M4.00098 0V21M-16.999 10.5H25.001"/>
            <path fill="black" d="M4.00098 0V21V0ZM-16.999 10.5H25.001H-16.999Z"/>
            <path stroke="#C8102E" stroke-width="4.2" d="M4.00098 0V21M-16.999 10.5H25.001"/>
        </g>
    </g>
    <defs>
        <clipPath id="nzd_svg__clip0_3145_261574">
            <rect width="42" height="21" fill="white" transform="translate(-17)"/>
        </clipPath>
    </defs>
</svg>
