<svg xmlns="http://www.w3.org/2000/svg" fill="none" viewBox="0 0 42 42">
    <path fill="url(#osETH_svg__paint0_linear_1003_158890)" d="M21 42C32.598 42 42 32.598 42 21C42 9.40202 32.598 0 21 0C9.40202 0 0 9.40202 0 21C0 32.598 9.40202 42 21 42Z"/>
    <path fill="url(#osETH_svg__paint1_linear_1003_158890)" d="M21.0082 37L7.7627 30.2372L21.0082 23.7411V37Z"/>
    <path fill="url(#osETH_svg__paint2_linear_1003_158890)" d="M21.0088 23.7411L34.2543 30.2772L21.0088 37V23.7411Z"/>
    <path fill="url(#osETH_svg__paint3_linear_1003_158890)" d="M28.8387 19.9262L34.2543 30.2639L21.0088 23.7278L28.8387 19.9262Z"/>
    <path fill="url(#osETH_svg__paint4_linear_1003_158890)" d="M13.1923 19.8995L21.0089 23.7411L7.75 30.2238L13.1923 19.8995Z"/>
    <path fill="url(#osETH_svg__paint5_linear_1003_158890)" d="M21.0093 23.7411V5L13.2061 19.9129L21.036 23.7411H21.0093Z"/>
    <path fill="url(#osETH_svg__paint6_linear_1003_158890)" d="M21.0088 23.7411V5L28.8387 19.9262L21.0088 23.7411Z"/>
    <defs>
        <linearGradient id="osETH_svg__paint0_linear_1003_158890" x1="21" x2="21" y1="0" y2="42" gradientUnits="userSpaceOnUse">
            <stop stop-color="white"/>
            <stop offset="1" stop-color="#E6F6FF"/>
        </linearGradient>
        <linearGradient id="osETH_svg__paint1_linear_1003_158890" x1="10.6636" x2="21.0013" y1="28.9967" y2="37" gradientUnits="userSpaceOnUse">
            <stop stop-color="#43C1F9"/>
            <stop offset="0.518717" stop-color="#2E83B5"/>
            <stop offset="1" stop-color="#143764"/>
        </linearGradient>
        <linearGradient id="osETH_svg__paint2_linear_1003_158890" x1="21.0016" x2="32.3397" y1="37" y2="29.3301" gradientUnits="userSpaceOnUse">
            <stop stop-color="#4B9CF1"/>
            <stop offset="0.580939" stop-color="#5299E9"/>
            <stop offset="1" stop-color="#689FD2"/>
        </linearGradient>
        <linearGradient id="osETH_svg__paint3_linear_1003_158890" x1="25.0033" x2="30.6723" y1="23.3276" y2="21.9937" gradientUnits="userSpaceOnUse">
            <stop stop-color="#33B6FF"/>
            <stop offset="1" stop-color="#4696FE"/>
        </linearGradient>
        <linearGradient id="osETH_svg__paint4_linear_1003_158890" x1="10.3305" x2="15.3326" y1="28.6632" y2="19.9929" gradientUnits="userSpaceOnUse">
            <stop stop-color="#4AB0EA"/>
            <stop offset="0.490589" stop-color="#4DACE3"/>
            <stop offset="1" stop-color="#6C819D"/>
        </linearGradient>
        <linearGradient id="osETH_svg__paint5_linear_1003_158890" x1="21.0023" x2="15.9272" y1="14.3639" y2="14.3639" gradientUnits="userSpaceOnUse">
            <stop stop-color="#5E71FB"/>
            <stop offset="1" stop-color="#479BFD"/>
        </linearGradient>
        <linearGradient id="osETH_svg__paint6_linear_1003_158890" x1="22.3355" x2="29.005" y1="15.9912" y2="20.3264" gradientUnits="userSpaceOnUse">
            <stop stop-color="#5677EF"/>
            <stop offset="1" stop-color="#7A9CFB"/>
        </linearGradient>
    </defs>
</svg>
