<svg xmlns="http://www.w3.org/2000/svg" fill="none" viewBox="0 0 36 36">
    <path fill="#F3F3F3" d="M18 36c9.941 0 18-8.059 18-18S27.941 0 18 0 0 8.059 0 18s8.059 18 18 18Z"/>
    <path fill="url(#wld_svg__a)" d="M18 36c9.941 0 18-8.059 18-18S27.941 0 18 0 0 8.059 0 18s8.059 18 18 18Z" opacity=".5" style="mix-blend-mode:multiply"/>
    <circle cx="18" cy="18" r="10.857" stroke="#030303" stroke-width="2.286"/>
    <path stroke="#030303" stroke-width="2.286" d="M6 18.001h23.429m-1.715-5.714H18a5.714 5.714 0 0 0 0 11.429h9.714"/>
    <defs>
        <linearGradient id="wld_svg__a" x1="18" x2="18" y1="12.956" y2="38.128" gradientUnits="userSpaceOnUse">
            <stop stop-color="#fff"/>
            <stop offset="1" stop-color="#7D7D7D"/>
        </linearGradient>
    </defs>
</svg>
