<svg xmlns="http://www.w3.org/2000/svg" id="zar_svg__svg807" fill="none" version="1.1" viewBox="0 0 36 36">
    <g id="zar_svg__g785" clip-path="url(#zar_svg__clip0_8751_366846)">
        <mask id="zar_svg__mask0_8751_366846" width="36" height="36" x="0" y="0" maskUnits="userSpaceOnUse" style="mask-type:alpha">
            <circle id="zar_svg__circle22" cx="18" cy="18" r="18" fill="#D9D9D9"/>
        </mask>
        <g id="zar_svg__g783" mask="url(#zar_svg__mask0_8751_366846)">
            <g id="zar_svg__g781" mask="url(#zar_svg__mask1_8751_366846)">
                <path id="zar_svg__path762" fill="#002395" d="M-0.855469 0V36H53.1445V0H-0.855469Z"/>
                <path id="zar_svg__path764" fill="#DE3831" d="M-0.855469 0V18H53.1445V0H-0.855469Z"/>
                <path id="zar_svg__path766" fill="black" d="M-0.855469 0L26.1445 18L-0.855469 36M26.1445 18H53.1445H26.1445Z"/>
                <path id="zar_svg__path768" stroke="#F3F3F3" stroke-width="12" d="M-0.855469 0L26.1445 18M26.1445 18L-0.855469 36M26.1445 18H53.1445"/>
                <mask id="zar_svg__mask2_8751_366846" width="28" height="36" x="-1" y="0" maskUnits="userSpaceOnUse" style="mask-type:luminance">
                    <path id="zar_svg__path770" fill="white" d="M-0.855469 0L26.1445 18L-0.855469 36"/>
                </mask>
                <g id="zar_svg__g777" mask="url(#zar_svg__mask2_8751_366846)">
                    <path id="zar_svg__path773" fill="black" d="M-0.855469 0L26.1445 18L-0.855469 36"/>
                    <path id="zar_svg__path775" stroke="#FFB612" stroke-width="12" d="M-0.855469 0L26.1445 18L-0.855469 36"/>
                </g>
                <path id="zar_svg__path779" stroke="#007A4D" stroke-width="7.2" d="M-0.855469 0L26.1445 18M26.1445 18L-0.855469 36M26.1445 18H53.1445"/>
            </g>
            <mask id="zar_svg__mask1_8751_366846" width="55" height="36" x="-1" y="0" maskUnits="userSpaceOnUse" style="mask-type:luminance">
                <path id="zar_svg__path759" fill="white" d="M-0.855469 0H53.1445V36H-0.855469V0Z"/>
            </mask>
        </g>
    </g>
    <defs id="zar_svg__defs805">
        <radialGradient id="zar_svg__paint0_radial_8751_366846" cx="0" cy="0" r="1" gradientTransform="translate(28.2708 19.4451) rotate(22.9194) scale(0.372198 0.372457)" gradientUnits="userSpaceOnUse">
            <stop id="zar_svg__stop787" stop-color="white"/>
            <stop id="zar_svg__stop789" offset="1" stop-color="#F15770"/>
        </radialGradient>
        <radialGradient id="zar_svg__paint1_radial_8751_366846" cx="0" cy="0" r="1" gradientTransform="translate(25.7101 18.2278) rotate(-95.263) scale(0.369109 0.342587)" gradientUnits="userSpaceOnUse">
            <stop id="zar_svg__stop792" stop-color="white"/>
            <stop id="zar_svg__stop794" offset="1" stop-color="#F15770"/>
        </radialGradient>
        <radialGradient id="zar_svg__paint2_radial_8751_366846" cx="0" cy="0" r="1" gradientTransform="translate(35.1128 20.2519) rotate(49.9975) scale(0.192217 0.37743)" gradientUnits="userSpaceOnUse">
            <stop id="zar_svg__stop797" stop-color="white"/>
            <stop id="zar_svg__stop799" offset="1" stop-color="#F15770"/>
        </radialGradient>
        <clipPath id="zar_svg__clip0_8751_366846">
            <rect id="zar_svg__rect802" width="36" height="36" fill="white" rx="18"/>
        </clipPath>
    </defs>
</svg>
