<svg width="18" height="18" viewBox="0 0 18 18" fill="none" xmlns="http://www.w3.org/2000/svg">
<path d="M7.125 16.8727L7.125 0.562512C7.125 0.459387 7.04062 0.375012 6.9375 0.375012L5.53125 0.375011C5.42813 0.375011 5.34375 0.459386 5.34375 0.562511L5.34375 14.7469L1.05469 11.3649C0.932811 11.2688 0.75 11.3555 0.75 11.5125L0.749999 13.2117C0.749999 13.3266 0.801561 13.4344 0.892967 13.507L5.91094 17.4633C6.40312 17.85 7.125 17.5008 7.125 16.8727ZM12.6562 17.4375L12.6562 3.25314L16.9453 6.63517C17.0672 6.73126 17.25 6.64454 17.25 6.48751L17.25 4.78829C17.25 4.67345 17.1984 4.56564 17.107 4.49298L12.0891 0.53673C11.5969 0.150012 10.875 0.49923 10.875 1.12501L10.875 17.4375C10.875 17.5406 10.9594 17.625 11.0625 17.625L12.4687 17.625C12.5719 17.625 12.6562 17.5406 12.6562 17.4375Z" fill="white"/>
</svg>
