<svg width="1422" height="1113" viewBox="0 0 1422 1113" fill="none" xmlns="http://www.w3.org/2000/svg">
<path d="M708.069 -2.00879V406.1L372.669 556.795L708.069 -2.00879Z" fill="url(#paint0_linear_171_7201)" fill-opacity="0.06"/>
<path d="M708.069 406.1V761.435L372.669 556.795L708.069 406.1Z" fill="url(#paint1_linear_171_7201)" fill-opacity="0.06"/>
<path d="M708.069 834.148V1107.98L372.669 635.37L708.069 834.148Z" fill="url(#paint2_linear_171_7201)" fill-opacity="0.06"/>
<path d="M708.069 -2.00879V406.1L1043.47 556.795L708.069 -2.00879Z" fill="url(#paint3_linear_171_7201)" fill-opacity="0.06"/>
<path d="M708.069 406.1V761.435L1043.47 556.795L708.069 406.1Z" fill="url(#paint4_linear_171_7201)" fill-opacity="0.06"/>
<path d="M708.069 834.148V1107.98L1043.47 635.37L708.069 834.148Z" fill="url(#paint5_linear_171_7201)" fill-opacity="0.06"/>
<path d="M640.052 -2.00879H260.088L0.913574 406.1L320.481 538.03L640.052 -2.00879Z" fill="url(#paint6_linear_171_7201)" fill-opacity="0.06"/>
<path d="M781.365 -2.00879H1161.91L1421.08 406.1L1100.93 538.03L781.365 -2.00879Z" fill="url(#paint7_linear_171_7201)" fill-opacity="0.06"/>
<path d="M299.375 598.429L0.913574 453.597L653.538 1107.98L299.375 598.429Z" fill="url(#paint8_linear_171_7201)" fill-opacity="0.06"/>
<path d="M1122.04 603.119L1421.09 458.873L768.464 1112.67L1122.04 603.119Z" fill="url(#paint9_linear_171_7201)" fill-opacity="0.06"/>
<defs>
<linearGradient id="paint0_linear_171_7201" x1="540.369" y1="-2.00879" x2="540.369" y2="556.795" gradientUnits="userSpaceOnUse">
<stop stop-color="#8295B3"/>
<stop offset="1" stop-color="#8295B3" stop-opacity="0"/>
</linearGradient>
<linearGradient id="paint1_linear_171_7201" x1="540.369" y1="406.1" x2="540.369" y2="761.435" gradientUnits="userSpaceOnUse">
<stop stop-color="#8295B3"/>
<stop offset="1" stop-color="#8295B3" stop-opacity="0"/>
</linearGradient>
<linearGradient id="paint2_linear_171_7201" x1="540.369" y1="635.37" x2="540.369" y2="1107.98" gradientUnits="userSpaceOnUse">
<stop stop-color="#8295B3"/>
<stop offset="1" stop-color="#8295B3" stop-opacity="0"/>
</linearGradient>
<linearGradient id="paint3_linear_171_7201" x1="875.77" y1="-2.00879" x2="875.77" y2="556.795" gradientUnits="userSpaceOnUse">
<stop stop-color="#8295B3"/>
<stop offset="1" stop-color="#8295B3" stop-opacity="0"/>
</linearGradient>
<linearGradient id="paint4_linear_171_7201" x1="875.769" y1="406.1" x2="875.769" y2="761.435" gradientUnits="userSpaceOnUse">
<stop stop-color="#8295B3"/>
<stop offset="1" stop-color="#8295B3" stop-opacity="0"/>
</linearGradient>
<linearGradient id="paint5_linear_171_7201" x1="875.769" y1="635.37" x2="875.769" y2="1107.98" gradientUnits="userSpaceOnUse">
<stop stop-color="#8295B3"/>
<stop offset="1" stop-color="#8295B3" stop-opacity="0"/>
</linearGradient>
<linearGradient id="paint6_linear_171_7201" x1="320.483" y1="-2.00879" x2="320.483" y2="538.03" gradientUnits="userSpaceOnUse">
<stop stop-color="#8295B3"/>
<stop offset="1" stop-color="#8295B3" stop-opacity="0"/>
</linearGradient>
<linearGradient id="paint7_linear_171_7201" x1="1101.22" y1="-2.00879" x2="1101.22" y2="538.03" gradientUnits="userSpaceOnUse">
<stop stop-color="#8295B3"/>
<stop offset="1" stop-color="#8295B3" stop-opacity="0"/>
</linearGradient>
<linearGradient id="paint8_linear_171_7201" x1="327.226" y1="453.597" x2="327.226" y2="1107.98" gradientUnits="userSpaceOnUse">
<stop stop-color="#8295B3"/>
<stop offset="1" stop-color="#8295B3" stop-opacity="0"/>
</linearGradient>
<linearGradient id="paint9_linear_171_7201" x1="1094.78" y1="458.873" x2="1094.78" y2="1112.67" gradientUnits="userSpaceOnUse">
<stop stop-color="#8295B3"/>
<stop offset="1" stop-color="#8295B3" stop-opacity="0"/>
</linearGradient>
</defs>
</svg>
