<svg width="10" height="10" viewBox="0 0 10 10" fill="none" xmlns="http://www.w3.org/2000/svg">
<path d="M8.5 2.5H8V2C8 1.60218 7.84196 1.22064 7.56066 0.93934C7.27936 0.658035 6.89782 0.5 6.5 0.5H1.5C1.10218 0.5 0.720644 0.658035 0.43934 0.93934C0.158035 1.22064 0 1.60218 0 2V8C0 8.39782 0.158035 8.77936 0.43934 9.06066C0.720644 9.34196 1.10218 9.5 1.5 9.5H8.5C8.89782 9.5 9.27936 9.34196 9.56066 9.06066C9.84196 8.77936 10 8.39782 10 8V4C10 3.60218 9.84196 3.22064 9.56066 2.93934C9.27936 2.65804 8.89782 2.5 8.5 2.5ZM1.5 1.5H6.5C6.63261 1.5 6.75979 1.55268 6.85355 1.64645C6.94732 1.74021 7 1.86739 7 2V2.5H1.5C1.36739 2.5 1.24021 2.44732 1.14645 2.35355C1.05268 2.25979 1 2.13261 1 2C1 1.86739 1.05268 1.74021 1.14645 1.64645C1.24021 1.55268 1.36739 1.5 1.5 1.5ZM9 6.5H8.5C8.36739 6.5 8.24021 6.44732 8.14645 6.35355C8.05268 6.25979 8 6.13261 8 6C8 5.86739 8.05268 5.74021 8.14645 5.64645C8.24021 5.55268 8.36739 5.5 8.5 5.5H9V6.5ZM9 4.5H8.5C8.10218 4.5 7.72064 4.65804 7.43934 4.93934C7.15804 5.22064 7 5.60218 7 6C7 6.39782 7.15804 6.77936 7.43934 7.06066C7.72064 7.34196 8.10218 7.5 8.5 7.5H9V8C9 8.13261 8.94732 8.25979 8.85355 8.35355C8.75979 8.44732 8.63261 8.5 8.5 8.5H1.5C1.36739 8.5 1.24021 8.44732 1.14645 8.35355C1.05268 8.25979 1 8.13261 1 8V3.415C1.16063 3.47151 1.32972 3.50025 1.5 3.5H8.5C8.63261 3.5 8.75979 3.55268 8.85355 3.64645C8.94732 3.74021 9 3.86739 9 4V4.5Z" fill="white"/>
</svg>
