<svg width="16" height="16" viewBox="0 0 16 16" fill="none" xmlns="http://www.w3.org/2000/svg">
<path d="M5.59968 11.3335L7.99968 8.9335L10.3997 11.3335L11.333 10.4002L8.93301 8.00016L11.333 5.60016L10.3997 4.66683L7.99968 7.06683L5.59968 4.66683L4.66634 5.60016L7.06634 8.00016L4.66634 10.4002L5.59968 11.3335ZM7.99968 14.6668C7.07745 14.6668 6.21079 14.4917 5.39968 14.1415C4.58856 13.7913 3.88301 13.3164 3.28301 12.7168C2.68301 12.1173 2.20812 11.4117 1.85834 10.6002C1.50856 9.78861 1.33345 8.92194 1.33301 8.00016C1.33256 7.07838 1.50768 6.21172 1.85834 5.40016C2.20901 4.58861 2.6839 3.88305 3.28301 3.2835C3.88212 2.68394 4.58768 2.20905 5.39968 1.85883C6.21168 1.50861 7.07834 1.3335 7.99968 1.3335C8.92101 1.3335 9.78767 1.50861 10.5997 1.85883C11.4117 2.20905 12.1172 2.68394 12.7163 3.2835C13.3155 3.88305 13.7906 4.58861 14.1417 5.40016C14.4928 6.21172 14.6677 7.07838 14.6663 8.00016C14.665 8.92194 14.4899 9.78861 14.141 10.6002C13.7921 11.4117 13.3172 12.1173 12.7163 12.7168C12.1155 13.3164 11.4099 13.7915 10.5997 14.1422C9.78945 14.4928 8.92279 14.6677 7.99968 14.6668ZM7.99968 13.3335C9.48856 13.3335 10.7497 12.8168 11.783 11.7835C12.8163 10.7502 13.333 9.48905 13.333 8.00016C13.333 6.51127 12.8163 5.25016 11.783 4.21683C10.7497 3.1835 9.48856 2.66683 7.99968 2.66683C6.51079 2.66683 5.24968 3.1835 4.21634 4.21683C3.18301 5.25016 2.66634 6.51127 2.66634 8.00016C2.66634 9.48905 3.18301 10.7502 4.21634 11.7835C5.24968 12.8168 6.51079 13.3335 7.99968 13.3335Z" fill="#64748B"/>
</svg>
