<svg width="120" height="61" viewBox="0 0 120 61" fill="none" xmlns="http://www.w3.org/2000/svg">
<path opacity="0.5" d="M4.8537 37.055L1.04883 30.0092V60.5093H119V57.0184L117.731 52.9083H113.927L111.813 46.4495L98.2844 49.3853C98.2844 47.4281 98.0307 43.1615 97.0161 41.7523C96.0014 40.3431 93.493 46.2538 92.3657 49.3853L91.0974 47.0184H88.5608C88.9836 50.3456 88.9836 57 85.6015 57C82.2194 57 81.3738 49.3853 81.3738 40.578H77.569L75.8779 31.7706L72.9186 33.5321V28.2477L66.1544 33.5321L61.504 19.4404L57.6991 20.6147L55.5853 9.45872L51.3577 10.633L47.5528 6.52294H43.7479L41.2113 12.9817L39.0975 10.633L35.7154 9.45872L33.1788 10.633L32.7561 7.69725L30.6422 9.45872L27.6829 3L20.9187 30.0092H18.8049L15 40.578L12.4634 38.8165L10.7724 40.578L8.2358 30.0092L4.8537 37.055Z" fill="url(#paint0_linear_255_14223)"/>
<path d="M1.04883 30.0092L4.8537 37.055L8.2358 30.0092L10.7724 40.578L12.4634 38.8165L15 40.578L18.8049 30.0092H20.9187L27.6829 3L30.6422 9.45872L32.7561 7.69725L33.1788 10.633L35.7154 9.45872L39.0975 10.633L41.2113 12.9817L43.7479 6.52294H47.5528L51.3577 10.633L55.5853 9.45872L57.6991 20.6147L61.504 19.4404L66.1544 33.5321L72.9186 28.2477V33.5321L75.8779 31.7706L77.569 40.578H81.3738C81.3738 49.3853 82.2194 57 85.6015 57C88.9836 57 88.9836 50.3456 88.5608 47.0184H91.0974L92.3657 49.3853C93.493 46.2538 96.0014 40.3431 97.0161 41.7523C98.0307 43.1615 98.2844 47.4281 98.2844 49.3853L111.813 46.4495L113.927 52.9083H117.731L119 57.0184" stroke="#4693A3" stroke-width="1.68861"/>
<defs>
<linearGradient id="paint0_linear_255_14223" x1="60.0243" y1="3" x2="60.0243" y2="60.5093" gradientUnits="userSpaceOnUse">
<stop stop-color="#1CD6FF"/>
<stop offset="1" stop-color="#1D1D51" stop-opacity="0"/>
</linearGradient>
</defs>
</svg>
