<svg width="290" height="289" viewBox="0 0 290 289" fill="none" xmlns="http://www.w3.org/2000/svg">
<rect x="0.581619" y="0.0816195" width="288.837" height="288.837" rx="144.418" fill="url(#paint0_linear_80_1708)"/>
<rect x="0.581619" y="0.0816195" width="288.837" height="288.837" rx="144.418" stroke="white" stroke-width="0.163239"/>
<g clip-path="url(#clip0_80_1708)">
<path fill-rule="evenodd" clip-rule="evenodd" d="M208.64 99.0733C210.515 100.949 211.568 103.492 211.568 106.143C211.568 108.795 210.515 111.338 208.64 113.213L133.687 188.167C132.696 189.157 131.52 189.943 130.226 190.479C128.932 191.016 127.544 191.292 126.143 191.292C124.742 191.292 123.355 191.016 122.061 190.479C120.767 189.943 119.591 189.157 118.6 188.167L81.36 150.933C80.4049 150.011 79.6431 148.907 79.119 147.687C78.5949 146.467 78.319 145.155 78.3075 143.827C78.296 142.5 78.549 141.183 79.0518 139.954C79.5546 138.725 80.2971 137.608 81.2361 136.669C82.175 135.73 83.2915 134.988 84.5205 134.485C85.7494 133.982 87.0662 133.729 88.394 133.741C89.7218 133.752 91.034 134.028 92.2541 134.552C93.4741 135.076 94.5775 135.838 95.5 136.793L126.14 167.433L194.493 99.0733C195.422 98.144 196.525 97.4069 197.738 96.9039C198.952 96.401 200.253 96.1421 201.567 96.1421C202.88 96.1421 204.181 96.401 205.395 96.9039C206.609 97.4069 207.711 98.144 208.64 99.0733Z" fill="white"/>
</g>
<defs>
<linearGradient id="paint0_linear_80_1708" x1="68.3649" y1="-1.5604e-05" x2="337.894" y2="81.3871" gradientUnits="userSpaceOnUse">
<stop stop-color="#24C083"/>
<stop offset="0.0001" stop-color="#24C083"/>
<stop offset="1" stop-color="#60F0B8"/>
</linearGradient>
<clipPath id="clip0_80_1708">
<rect width="160" height="160" fill="white" transform="translate(65 65)"/>
</clipPath>
</defs>
</svg>
