<svg width="21" height="21" viewBox="0 0 21 21" fill="none" xmlns="http://www.w3.org/2000/svg">
<g opacity="0.8">
<path d="M17.5664 2.84619H7.56641C7.40065 2.84619 7.24167 2.91204 7.12446 3.02925C7.00725 3.14646 6.94141 3.30543 6.94141 3.47119V6.59619H3.81641C3.65065 6.59619 3.49167 6.66204 3.37446 6.77925C3.25725 6.89646 3.19141 7.05543 3.19141 7.22119V17.2212C3.19141 17.387 3.25725 17.5459 3.37446 17.6631C3.49167 17.7803 3.65065 17.8462 3.81641 17.8462H13.8164C13.9822 17.8462 14.1411 17.7803 14.2583 17.6631C14.3756 17.5459 14.4414 17.387 14.4414 17.2212V14.0962H17.5664C17.7322 14.0962 17.8911 14.0303 18.0083 13.9131C18.1256 13.7959 18.1914 13.637 18.1914 13.4712V3.47119C18.1914 3.30543 18.1256 3.14646 18.0083 3.02925C17.8911 2.91204 17.7322 2.84619 17.5664 2.84619ZM13.1914 16.5962H4.44141V7.84619H13.1914V16.5962ZM16.9414 12.8462H14.4414V7.22119C14.4414 7.05543 14.3756 6.89646 14.2583 6.77925C14.1411 6.66204 13.9822 6.59619 13.8164 6.59619H8.19141V4.09619H16.9414V12.8462Z" fill="white"/>
</g>
</svg>
