<svg width="320" height="320" viewBox="0 0 320 320" fill="none" xmlns="http://www.w3.org/2000/svg">
<g opacity="0.2">
<path d="M304.7 213.3L259.7 88.3C259 86.3 257.1 85 255 85H207.7C209.2 80.25 210 75.2 210 70C210 42.45 187.55 20 160 20C132.45 20 110 42.45 110 70C110 75.2 110.8 80.25 112.3 85H65C62.9 85 61 86.3 60.3 88.3L15.3 213.3C15.1 213.85 15 214.4 15 215V295C15 297.75 17.25 300 20 300H300C302.75 300 305 297.75 305 295V215C305 214.4 304.9 213.85 304.7 213.3ZM60 169.15L45.3 210H27.15L60.05 118.65V169.15H60ZM68.5 175H251.45L264.05 210H198.85C194.25 210 190.25 213.1 189.15 217.6L187 226.25C186.45 228.5 184.45 230.05 182.15 230.05H137.75C135.45 230.05 133.45 228.5 132.9 226.25L130.75 217.6C129.65 213.15 125.65 210 121.05 210H55.85L68.45 175H68.5ZM274.7 210L260 169.15V118.65L292.9 210H274.75H274.7ZM160 30C182.05 30 200 47.95 200 70C200 88.5 187.45 104.5 169.45 108.9C168 109.25 166.8 110.2 166.15 111.5L159.95 123.85L153.75 111.5C153.1 110.2 151.9 109.25 150.45 108.9C132.45 104.5 119.9 88.55 119.9 70C119.9 47.95 137.85 30 159.9 30H160ZM145.9 118L155.55 137.25C156.4 138.95 158.1 140 160 140C161.9 140 163.6 138.95 164.45 137.25L174.1 118C186.75 114.3 197 105.9 203.3 95H250V165H70V95H116.7C122.95 105.9 133.25 114.3 145.9 118ZM25 290V220H121.1L123.25 228.65C124.9 235.35 130.9 240 137.8 240H182.2C189.1 240 195.1 235.35 196.75 228.65L198.9 220H295V290H25ZM138.8 84.15L152.95 70L138.8 55.85C136.85 53.9 136.85 50.75 138.8 48.8C140.75 46.85 143.9 46.85 145.85 48.8L160 62.95L174.15 48.8C176.1 46.85 179.25 46.85 181.2 48.8C183.15 50.75 183.15 53.9 181.2 55.85L167.05 70L181.2 84.15C183.15 86.1 183.15 89.25 181.2 91.2C180.2 92.2 178.95 92.65 177.65 92.65C176.35 92.65 175.1 92.15 174.1 91.2L159.95 77.05L145.8 91.2C144.8 92.2 143.55 92.65 142.25 92.65C140.95 92.65 139.7 92.15 138.7 91.2C136.75 89.25 136.75 86.1 138.7 84.15H138.8Z" fill="#64748B"/>
</g>
</svg>
