<svg width="355" height="251" viewBox="0 0 355 251" fill="none" xmlns="http://www.w3.org/2000/svg">
<path d="M5 84.066L7.50362 87.5431L10.508 86.1523L12.0101 87.5431L13.0116 77.8071L18.0188 80.5888L21.0232 71.5482L24.0275 75.0254H26.0304L27.5326 80.5888H29.5355L32.0391 77.8071L35.5441 70.1574L40.0507 71.5482L41.5528 64.5939L49.5644 39.5584L54.0709 42.3401L57.576 34.6904L62.0825 30.5178L63.5847 28.4315L66.589 39.5584H69.0926V44.4264L70.5948 48.599H74.0999L81.11 56.2487L88.1201 48.599L91.6252 52.7716C92.4597 52.7716 94.2289 51.9371 94.6295 48.599C95.0301 45.2609 96.1317 31.445 96.6324 24.9543H100.137L101.139 18H103.643L105.145 22.868L106.146 36.0812L107.648 39.5584L110.152 36.0812V39.5584H114.158L115.159 50.6853L118.164 48.599L123.171 62.5076L127.677 56.2487C128.846 63.6667 131.282 77.8071 131.683 75.0254C132.084 72.2437 135.856 65.5212 137.692 62.5076L139.695 64.5939L141.698 56.2487L146.204 64.5939C147.706 56.4805 151.011 40.6711 152.213 42.3401C153.715 44.4264 154.716 54.1624 155.718 54.1624C156.519 54.1624 160.391 49.0626 162.227 46.5127L168.236 93.1066L172.742 91.0203L174.745 132.746L180.754 127.878L182.757 151.523L185.761 147.35V155H188.265L191.77 127.878H193.773L198.78 120.228L203.787 124.401L205.289 120.228L207.292 118.142L211.298 80.5888L215.805 88.934L219.81 80.5888L222.815 93.1066L224.818 91.0203L227.822 93.1066L232.329 80.5888H234.832L242.844 48.599L246.349 56.2487L248.852 54.1624L249.353 57.6396L252.357 56.2487L256.363 57.6396L258.867 60.4213L261.871 52.7716H266.378L270.884 57.6396L275.891 56.2487L278.395 69.4619L282.902 68.0711L288.41 84.7614L296.421 78.5025V84.7614L299.926 82.6751L301.929 93.1066H306.436C306.436 103.538 307.437 124.401 311.443 124.401C315.449 124.401 315.449 116.519 314.948 112.579H317.952L319.454 103.538C320.79 99.8291 323.761 92.8284 324.962 94.4975C326.164 96.1665 326.465 101.22 326.465 103.538L342.488 100.061L344.991 107.711H349.498L351 112.579" stroke="#4693A3" stroke-width="2"/>
<g filter="url(#filter0_bd_255_14832)">
<path opacity="0.6" d="M22.2403 203.502L24.5643 202.2H25.6423V212H24.2003V204.048L24.1723 204.006L22.7863 204.608L22.2403 203.502ZM28.1285 202.2H29.6685V206.456H34.3865V202.2H35.9265V212H34.3865V207.884H29.6685V212H28.1285V202.2Z" fill="white"/>
</g>
<g filter="url(#filter1_bd_255_14832)">
<path opacity="0.6" d="M81.6319 203.502L83.9559 202.2H85.0339V212H83.5919V204.048L83.5639 204.006L82.1779 204.608L81.6319 203.502ZM90.9221 212H87.5201V202.2H90.9221C91.7061 202.2 92.5181 202.41 93.2041 202.816C94.8001 203.754 95.3881 205.406 95.4021 207.1C95.4021 208.794 94.7581 210.502 93.2041 211.384C92.4901 211.804 91.6221 212 90.9221 212ZM89.0601 203.656V210.544H90.6421C91.2021 210.544 91.8461 210.46 92.5321 210.068C93.5401 209.494 93.8621 208.276 93.8621 207.086C93.8621 205.84 93.5121 204.72 92.5321 204.132C91.8321 203.712 91.0341 203.656 90.6421 203.656H89.0601Z" fill="white"/>
</g>
<g filter="url(#filter2_bd_255_14832)">
<rect x="118.334" y="192" width="59.1667" height="33" rx="4" fill="white" fill-opacity="0.05" shape-rendering="crispEdges"/>
<rect x="118.934" y="192.6" width="57.9667" height="31.8" rx="3.4" stroke="white" stroke-opacity="0.1" stroke-width="1.2" shape-rendering="crispEdges"/>
<path opacity="0.6" d="M138.831 203.502L141.155 202.2H142.233V212H140.791V204.048L140.763 204.006L139.377 204.608L138.831 203.502ZM143.697 202.2H145.419L147.477 209.662H147.505L149.577 202.2H151.159L153.217 209.662H153.245L155.289 202.2H157.039L153.987 212H152.447L150.375 204.804L148.289 212H146.749L143.697 202.2Z" fill="white"/>
</g>
<g filter="url(#filter3_bd_255_14832)">
<path opacity="0.6" d="M198.421 203.502L200.745 202.2H201.823V212H200.381V204.048L200.353 204.006L198.967 204.608L198.421 203.502ZM204.309 202.2H206.409L209.517 209.606H209.545L212.667 202.2H214.767V212H213.241V204.538H213.199L210.217 211.426H208.859L205.877 204.524H205.849V212H204.309V202.2Z" fill="white"/>
</g>
<g filter="url(#filter4_bd_255_14832)">
<path opacity="0.6" d="M259.85 203.502L262.174 202.2H263.252V212H261.81V204.048L261.782 204.006L260.396 204.608L259.85 203.502ZM264.464 202.2H266.158L267.18 203.922L268.692 206.582H268.706L270.218 203.922L271.254 202.2H272.934L269.448 208.024V212H267.964V208.024L264.464 202.2Z" fill="white"/>
</g>
<g filter="url(#filter5_bd_255_14832)">
<path opacity="0.6" d="M320.748 202.074H322.344L326.054 212H324.416L323.534 209.424H319.572L318.676 212H317.038L320.748 202.074ZM321.532 203.586L319.95 208.178H323.156L321.532 203.586ZM327.136 201.752H328.648V210.348C328.648 210.572 328.774 210.642 328.942 210.642C329.138 210.642 329.334 210.628 329.558 210.6V211.804C329.474 211.846 328.844 212 328.368 212C327.472 212 327.136 211.356 327.136 210.698V201.752ZM331.005 201.752H332.517V210.348C332.517 210.572 332.643 210.642 332.811 210.642C333.007 210.642 333.203 210.628 333.427 210.6V211.804C333.343 211.846 332.713 212 332.237 212C331.341 212 331.005 211.356 331.005 210.698V201.752Z" fill="white"/>
</g>
<defs>
<filter id="filter0_bd_255_14832" x="-20" y="172" width="99.166" height="79" filterUnits="userSpaceOnUse" color-interpolation-filters="sRGB">
<feFlood flood-opacity="0" result="BackgroundImageFix"/>
<feGaussianBlur in="BackgroundImageFix" stdDeviation="10"/>
<feComposite in2="SourceAlpha" operator="in" result="effect1_backgroundBlur_255_14832"/>
<feColorMatrix in="SourceAlpha" type="matrix" values="0 0 0 0 0 0 0 0 0 0 0 0 0 0 0 0 0 0 127 0" result="hardAlpha"/>
<feOffset dy="6"/>
<feGaussianBlur stdDeviation="10"/>
<feComposite in2="hardAlpha" operator="out"/>
<feColorMatrix type="matrix" values="0 0 0 0 0 0 0 0 0 0 0 0 0 0 0 0 0 0 0.16 0"/>
<feBlend mode="normal" in2="effect1_backgroundBlur_255_14832" result="effect2_dropShadow_255_14832"/>
<feBlend mode="normal" in="SourceGraphic" in2="effect2_dropShadow_255_14832" result="shape"/>
</filter>
<filter id="filter1_bd_255_14832" x="39.166" y="172" width="99.166" height="79" filterUnits="userSpaceOnUse" color-interpolation-filters="sRGB">
<feFlood flood-opacity="0" result="BackgroundImageFix"/>
<feGaussianBlur in="BackgroundImageFix" stdDeviation="10"/>
<feComposite in2="SourceAlpha" operator="in" result="effect1_backgroundBlur_255_14832"/>
<feColorMatrix in="SourceAlpha" type="matrix" values="0 0 0 0 0 0 0 0 0 0 0 0 0 0 0 0 0 0 127 0" result="hardAlpha"/>
<feOffset dy="6"/>
<feGaussianBlur stdDeviation="10"/>
<feComposite in2="hardAlpha" operator="out"/>
<feColorMatrix type="matrix" values="0 0 0 0 0 0 0 0 0 0 0 0 0 0 0 0 0 0 0.16 0"/>
<feBlend mode="normal" in2="effect1_backgroundBlur_255_14832" result="effect2_dropShadow_255_14832"/>
<feBlend mode="normal" in="SourceGraphic" in2="effect2_dropShadow_255_14832" result="shape"/>
</filter>
<filter id="filter2_bd_255_14832" x="98.334" y="172" width="99.166" height="79" filterUnits="userSpaceOnUse" color-interpolation-filters="sRGB">
<feFlood flood-opacity="0" result="BackgroundImageFix"/>
<feGaussianBlur in="BackgroundImageFix" stdDeviation="10"/>
<feComposite in2="SourceAlpha" operator="in" result="effect1_backgroundBlur_255_14832"/>
<feColorMatrix in="SourceAlpha" type="matrix" values="0 0 0 0 0 0 0 0 0 0 0 0 0 0 0 0 0 0 127 0" result="hardAlpha"/>
<feOffset dy="6"/>
<feGaussianBlur stdDeviation="10"/>
<feComposite in2="hardAlpha" operator="out"/>
<feColorMatrix type="matrix" values="0 0 0 0 0 0 0 0 0 0 0 0 0 0 0 0 0 0 0.16 0"/>
<feBlend mode="normal" in2="effect1_backgroundBlur_255_14832" result="effect2_dropShadow_255_14832"/>
<feBlend mode="normal" in="SourceGraphic" in2="effect2_dropShadow_255_14832" result="shape"/>
</filter>
<filter id="filter3_bd_255_14832" x="157.5" y="172" width="99.166" height="79" filterUnits="userSpaceOnUse" color-interpolation-filters="sRGB">
<feFlood flood-opacity="0" result="BackgroundImageFix"/>
<feGaussianBlur in="BackgroundImageFix" stdDeviation="10"/>
<feComposite in2="SourceAlpha" operator="in" result="effect1_backgroundBlur_255_14832"/>
<feColorMatrix in="SourceAlpha" type="matrix" values="0 0 0 0 0 0 0 0 0 0 0 0 0 0 0 0 0 0 127 0" result="hardAlpha"/>
<feOffset dy="6"/>
<feGaussianBlur stdDeviation="10"/>
<feComposite in2="hardAlpha" operator="out"/>
<feColorMatrix type="matrix" values="0 0 0 0 0 0 0 0 0 0 0 0 0 0 0 0 0 0 0.16 0"/>
<feBlend mode="normal" in2="effect1_backgroundBlur_255_14832" result="effect2_dropShadow_255_14832"/>
<feBlend mode="normal" in="SourceGraphic" in2="effect2_dropShadow_255_14832" result="shape"/>
</filter>
<filter id="filter4_bd_255_14832" x="216.666" y="172" width="99.166" height="79" filterUnits="userSpaceOnUse" color-interpolation-filters="sRGB">
<feFlood flood-opacity="0" result="BackgroundImageFix"/>
<feGaussianBlur in="BackgroundImageFix" stdDeviation="10"/>
<feComposite in2="SourceAlpha" operator="in" result="effect1_backgroundBlur_255_14832"/>
<feColorMatrix in="SourceAlpha" type="matrix" values="0 0 0 0 0 0 0 0 0 0 0 0 0 0 0 0 0 0 127 0" result="hardAlpha"/>
<feOffset dy="6"/>
<feGaussianBlur stdDeviation="10"/>
<feComposite in2="hardAlpha" operator="out"/>
<feColorMatrix type="matrix" values="0 0 0 0 0 0 0 0 0 0 0 0 0 0 0 0 0 0 0.16 0"/>
<feBlend mode="normal" in2="effect1_backgroundBlur_255_14832" result="effect2_dropShadow_255_14832"/>
<feBlend mode="normal" in="SourceGraphic" in2="effect2_dropShadow_255_14832" result="shape"/>
</filter>
<filter id="filter5_bd_255_14832" x="275.834" y="172" width="99.166" height="79" filterUnits="userSpaceOnUse" color-interpolation-filters="sRGB">
<feFlood flood-opacity="0" result="BackgroundImageFix"/>
<feGaussianBlur in="BackgroundImageFix" stdDeviation="10"/>
<feComposite in2="SourceAlpha" operator="in" result="effect1_backgroundBlur_255_14832"/>
<feColorMatrix in="SourceAlpha" type="matrix" values="0 0 0 0 0 0 0 0 0 0 0 0 0 0 0 0 0 0 127 0" result="hardAlpha"/>
<feOffset dy="6"/>
<feGaussianBlur stdDeviation="10"/>
<feComposite in2="hardAlpha" operator="out"/>
<feColorMatrix type="matrix" values="0 0 0 0 0 0 0 0 0 0 0 0 0 0 0 0 0 0 0.16 0"/>
<feBlend mode="normal" in2="effect1_backgroundBlur_255_14832" result="effect2_dropShadow_255_14832"/>
<feBlend mode="normal" in="SourceGraphic" in2="effect2_dropShadow_255_14832" result="shape"/>
</filter>
</defs>
</svg>
