<svg width="16" height="16" viewBox="0 0 16 16" fill="none" xmlns="http://www.w3.org/2000/svg">
<path d="M1.33268 3.51341L2.18602 2.66675L13.3327 13.8134L12.486 14.6667L10.4327 12.6134C9.66602 12.8667 8.85268 13.0001 7.99935 13.0001C4.66602 13.0001 1.81935 10.9267 0.666016 8.00008C1.12602 6.82675 1.85935 5.79341 2.79268 4.97341L1.33268 3.51341ZM7.99935 6.00008C8.52978 6.00008 9.03849 6.21079 9.41356 6.58587C9.78864 6.96094 9.99935 7.46965 9.99935 8.00008C9.99969 8.22713 9.96136 8.45257 9.88602 8.66675L7.33268 6.11341C7.54686 6.03807 7.77231 5.99974 7.99935 6.00008ZM7.99935 3.00008C11.3327 3.00008 14.1793 5.07341 15.3327 8.00008C14.7883 9.38204 13.8637 10.5816 12.666 11.4601L11.7193 10.5067C12.6413 9.86905 13.3849 9.00615 13.8793 8.00008C13.3405 6.89999 12.5037 5.97317 11.4643 5.32498C10.4248 4.6768 9.22434 4.33326 7.99935 4.33341C7.27268 4.33341 6.55935 4.45341 5.89268 4.66675L4.86602 3.64675C5.82602 3.23341 6.88602 3.00008 7.99935 3.00008ZM2.11935 8.00008C2.65825 9.10017 3.49499 10.027 4.53444 10.6752C5.57389 11.3234 6.77436 11.6669 7.99935 11.6667C8.45935 11.6667 8.91268 11.6201 9.33268 11.5267L7.81268 10.0001C7.34879 9.95036 6.9159 9.74333 6.586 9.41343C6.2561 9.08353 6.04907 8.65064 5.99935 8.18675L3.73268 5.91341C3.07268 6.48008 2.51935 7.18675 2.11935 8.00008Z" fill="#64748B"/>
</svg>
