<svg width="21" height="20" viewBox="0 0 21 20" fill="none" xmlns="http://www.w3.org/2000/svg">
<g opacity="0.4" clip-path="url(#clip0_96_5059)">
<path d="M4 3.74976H19L17.125 11.8748H5.875M17.125 14.3748H6.5L3.375 1.24976H1.5" stroke="white" stroke-width="1.25" stroke-linecap="round" stroke-linejoin="round"/>
<path d="M15.875 18.1245C16.5654 18.1245 17.125 17.5649 17.125 16.8745C17.125 16.1842 16.5654 15.6245 15.875 15.6245C15.1846 15.6245 14.625 16.1842 14.625 16.8745C14.625 17.5649 15.1846 18.1245 15.875 18.1245Z" stroke="white" stroke-width="1.25" stroke-linecap="round" stroke-linejoin="round"/>
<path d="M7.75 18.1245C8.44036 18.1245 9 17.5649 9 16.8745C9 16.1842 8.44036 15.6245 7.75 15.6245C7.05964 15.6245 6.5 16.1842 6.5 16.8745C6.5 17.5649 7.05964 18.1245 7.75 18.1245Z" stroke="white" stroke-width="1.25" stroke-linecap="round" stroke-linejoin="round"/>
</g>
<defs>
<clipPath id="clip0_96_5059">
<rect width="20" height="20" fill="white" transform="translate(0.25)"/>
</clipPath>
</defs>
</svg>
