<svg width="21" height="20" viewBox="0 0 21 20" fill="none" xmlns="http://www.w3.org/2000/svg">
<g opacity="0.4">
<path d="M11.8 2.49998C7.55832 2.38331 4.08332 5.79165 4.08332 9.99998H2.59165C2.21665 9.99998 2.03332 10.45 2.29998 10.7083L4.62498 13.0416C4.79165 13.2083 5.04998 13.2083 5.21665 13.0416L7.54165 10.7083C7.59924 10.6496 7.63815 10.5751 7.65347 10.4943C7.6688 10.4134 7.65985 10.3299 7.62777 10.2541C7.59569 10.1784 7.5419 10.1138 7.47319 10.0686C7.40448 10.0234 7.32391 9.9995 7.24165 9.99998H5.74998C5.74998 6.74998 8.39999 4.12498 11.6667 4.16665C14.7667 4.20831 17.375 6.81665 17.4167 9.91665C17.4583 13.175 14.8333 15.8333 11.5833 15.8333C10.2417 15.8333 8.99999 15.375 8.01665 14.6C7.85704 14.4742 7.65678 14.4116 7.45396 14.4239C7.25114 14.4361 7.05991 14.5226 6.91665 14.6666C6.56665 15.0166 6.59165 15.6083 6.98332 15.9083C8.29259 16.9437 9.91413 17.5048 11.5833 17.5C15.7917 17.5 19.2 14.025 19.0833 9.78331C18.975 5.87498 15.7083 2.60831 11.8 2.49998ZM11.375 6.66665C11.0333 6.66665 10.75 6.94998 10.75 7.29165V10.3583C10.75 10.65 10.9083 10.925 11.1583 11.075L13.7583 12.6166C14.0583 12.7916 14.4417 12.6916 14.6167 12.4C14.7917 12.1 14.6917 11.7166 14.4 11.5416L12 10.1166V7.28331C12 6.94998 11.7167 6.66665 11.375 6.66665Z" fill="white"/>
</g>
</svg>
