<svg width="21" height="20" viewBox="0 0 21 20" fill="none" xmlns="http://www.w3.org/2000/svg">
<g opacity="0.4">
<path d="M15.2499 2.49992H12.5999C12.2499 1.53325 11.3333 0.833252 10.2499 0.833252C9.16658 0.833252 8.24992 1.53325 7.89992 2.49992H5.24992C4.33325 2.49992 3.58325 3.24992 3.58325 4.16659V16.6666C3.58325 17.5833 4.33325 18.3333 5.24992 18.3333H10.3416C9.84856 17.8547 9.44748 17.2898 9.15825 16.6666H5.24992V4.16659H6.91659V4.99992C6.91659 5.91658 7.66658 6.66658 8.58325 6.66658H11.9166C12.8333 6.66658 13.5833 5.91658 13.5833 4.99992V4.16659H15.2499V8.39992C15.8416 8.48325 16.3999 8.65825 16.9166 8.89992V4.16659C16.9166 3.24992 16.1666 2.49992 15.2499 2.49992ZM10.2499 4.16659C9.79158 4.16659 9.41658 3.79159 9.41658 3.33325C9.41658 2.87492 9.79158 2.49992 10.2499 2.49992C10.7083 2.49992 11.0833 2.87492 11.0833 3.33325C11.0833 3.79159 10.7083 4.16659 10.2499 4.16659ZM14.4166 9.99992C12.1166 9.99992 10.2499 11.8666 10.2499 14.1666C10.2499 16.4666 12.1166 18.3333 14.4166 18.3333C16.7166 18.3333 18.5833 16.4666 18.5833 14.1666C18.5833 11.8666 16.7166 9.99992 14.4166 9.99992ZM15.4916 15.8333L14.1166 14.4583C14.0388 14.3808 13.994 14.2763 13.9916 14.1666V12.0916C13.9916 11.8583 14.1749 11.6749 14.4083 11.6749C14.6416 11.6749 14.8249 11.8583 14.8249 12.0916V13.9999L16.0749 15.2499C16.1139 15.2881 16.1448 15.3336 16.1661 15.3838C16.1873 15.434 16.1984 15.4879 16.1987 15.5424C16.199 15.597 16.1884 15.651 16.1677 15.7014C16.147 15.7518 16.1164 15.7977 16.0779 15.8362C16.0393 15.8748 15.9935 15.9053 15.9431 15.926C15.8927 15.9468 15.8386 15.9573 15.7841 15.957C15.7296 15.9568 15.6757 15.9457 15.6255 15.9244C15.5752 15.9032 15.5297 15.8722 15.4916 15.8333Z" fill="white"/>
</g>
</svg>
