<svg width="21" height="20" viewBox="0 0 21 20" fill="none" xmlns="http://www.w3.org/2000/svg">
<g opacity="0.4">
<path d="M14.5001 5.62476H17.0601C17.2149 5.62491 17.3642 5.68253 17.4789 5.78645C17.5937 5.89037 17.6658 6.0332 17.6813 6.18726L18.0626 9.99976H16.8051L16.4926 6.87476H14.5001V8.74976C14.5001 8.91552 14.4342 9.07449 14.317 9.1917C14.1998 9.30891 14.0408 9.37476 13.8751 9.37476C13.7093 9.37476 13.5503 9.30891 13.4331 9.1917C13.3159 9.07449 13.2501 8.91552 13.2501 8.74976V6.87476H8.25006V8.74976C8.25006 8.91552 8.18421 9.07449 8.067 9.1917C7.94979 9.30891 7.79082 9.37476 7.62506 9.37476C7.4593 9.37476 7.30033 9.30891 7.18312 9.1917C7.06591 9.07449 7.00006 8.91552 7.00006 8.74976V6.87476H5.00631L4.00631 16.8748H10.7501V18.1248H3.31506C3.22776 18.1247 3.14145 18.1063 3.06169 18.0708C2.98193 18.0353 2.91048 17.9836 2.85195 17.9188C2.79343 17.854 2.74912 17.7777 2.72188 17.6948C2.69464 17.6118 2.68508 17.5241 2.69381 17.4373L3.81881 6.18726C3.83429 6.0332 3.90641 5.89037 4.02118 5.78645C4.13596 5.68253 4.28522 5.62491 4.44006 5.62476H7.00006V5.18851C7.00006 3.02101 8.67006 1.24976 10.7501 1.24976C12.8301 1.24976 14.5001 3.02101 14.5001 5.18851V5.62601V5.62476ZM13.2501 5.62476V5.18851C13.2501 3.69601 12.1226 2.49976 10.7501 2.49976C9.37756 2.49976 8.25006 3.69601 8.25006 5.18851V5.62601H13.2501V5.62476ZM17.1838 15.0748L15.7501 13.6423V18.1248C15.7501 18.2905 15.6842 18.4495 15.567 18.5667C15.4498 18.6839 15.2908 18.7498 15.1251 18.7498C14.9593 18.7498 14.8003 18.6839 14.6831 18.5667C14.5659 18.4495 14.5001 18.2905 14.5001 18.1248V13.6423L13.0676 15.0748C13.0099 15.1344 12.9409 15.1821 12.8647 15.2148C12.7884 15.2476 12.7064 15.2648 12.6234 15.2655C12.5404 15.2663 12.4581 15.2504 12.3813 15.219C12.3045 15.1876 12.2347 15.1412 12.1761 15.0825C12.1174 15.0238 12.071 14.954 12.0395 14.8772C12.0081 14.8004 11.9923 14.7181 11.993 14.6351C11.9937 14.5521 12.011 14.4701 12.0437 14.3939C12.0765 14.3176 12.1241 14.2487 12.1838 14.191L14.6838 11.691C14.801 11.5738 14.96 11.508 15.1257 11.508C15.2914 11.508 15.4504 11.5738 15.5676 11.691L18.0676 14.191C18.1273 14.2487 18.1749 14.3176 18.2076 14.3939C18.2404 14.4701 18.2576 14.5521 18.2583 14.6351C18.2591 14.7181 18.2432 14.8004 18.2118 14.8772C18.1804 14.954 18.134 15.0238 18.0753 15.0825C18.0166 15.1412 17.9468 15.1876 17.87 15.219C17.7932 15.2504 17.7109 15.2663 17.6279 15.2655C17.5449 15.2648 17.4629 15.2476 17.3867 15.2148C17.3104 15.1821 17.2415 15.1344 17.1838 15.0748Z" fill="white"/>
</g>
</svg>
