<svg width="29" height="19" viewBox="0 0 29 19" fill="none" xmlns="http://www.w3.org/2000/svg">
<rect x="0.90332" width="27.2869" height="18.6966" rx="9.34829" fill="white"/>
<path d="M7.97766 9.6957C7.97766 9.38646 8.07307 9.12657 8.26387 8.91602C8.46126 8.6989 8.74418 8.59033 9.11264 8.59033C9.4811 8.59033 9.76073 8.6989 9.95154 8.91602C10.1489 9.12657 10.2476 9.38646 10.2476 9.6957C10.2476 9.99837 10.1489 10.255 9.95154 10.4655C9.76073 10.6761 9.4811 10.7813 9.11264 10.7813C8.74418 10.7813 8.46126 10.6761 8.26387 10.4655C8.07307 10.255 7.97766 9.99837 7.97766 9.6957Z" fill="#619FFF"/>
<path d="M13.3071 9.6957C13.3071 9.38646 13.4025 9.12657 13.5933 8.91602C13.7907 8.6989 14.0737 8.59033 14.4421 8.59033C14.8106 8.59033 15.0902 8.6989 15.281 8.91602C15.4784 9.12657 15.5771 9.38646 15.5771 9.6957C15.5771 9.99837 15.4784 10.255 15.281 10.4655C15.0902 10.6761 14.8106 10.7813 14.4421 10.7813C14.0737 10.7813 13.7907 10.6761 13.5933 10.4655C13.4025 10.255 13.3071 9.99837 13.3071 9.6957Z" fill="#619FFF"/>
<path d="M18.6366 9.6957C18.6366 9.38646 18.732 9.12657 18.9228 8.91602C19.1202 8.6989 19.4031 8.59033 19.7716 8.59033C20.14 8.59033 20.4197 8.6989 20.6105 8.91602C20.8079 9.12657 20.9066 9.38646 20.9066 9.6957C20.9066 9.99837 20.8079 10.255 20.6105 10.4655C20.4197 10.6761 20.14 10.7813 19.7716 10.7813C19.4031 10.7813 19.1202 10.6761 18.9228 10.4655C18.732 10.255 18.6366 9.99837 18.6366 9.6957Z" fill="#619FFF"/>
</svg>
