<svg width="16" height="17" viewBox="0 0 16 17" fill="none" xmlns="http://www.w3.org/2000/svg">
<path d="M6.10281 4.42386C6.94747 2.90919 7.36947 2.15186 8.00081 2.15186C8.63214 2.15186 9.05414 2.90919 9.89881 4.42386L10.1175 4.81586C10.3575 5.24652 10.4775 5.46186 10.6641 5.60386C10.8508 5.74586 11.0841 5.79852 11.5508 5.90386L11.9748 5.99986C13.6148 6.37119 14.4341 6.55652 14.6295 7.18386C14.8241 7.81052 14.2655 8.46452 13.1475 9.77186L12.8581 10.1099C12.5408 10.4812 12.3815 10.6672 12.3101 10.8965C12.2388 11.1265 12.2628 11.3745 12.3108 11.8699L12.3548 12.3212C12.5235 14.0659 12.6081 14.9379 12.0975 15.3252C11.5868 15.7132 10.8188 15.3592 9.28414 14.6525L8.88614 14.4699C8.45014 14.2685 8.23214 14.1685 8.00081 14.1685C7.76947 14.1685 7.55147 14.2685 7.11547 14.4699L6.71814 14.6525C5.18281 15.3592 4.41481 15.7125 3.90481 15.3259C3.39347 14.9379 3.47814 14.0659 3.64681 12.3212L3.69081 11.8705C3.73881 11.3745 3.76281 11.1265 3.69081 10.8972C3.62014 10.6672 3.46081 10.4812 3.14347 10.1105L2.85414 9.77186C1.73614 8.46519 1.17747 7.81119 1.37214 7.18386C1.56747 6.55652 2.38747 6.37052 4.02747 5.99986L4.45147 5.90386C4.91747 5.79852 5.15014 5.74586 5.33747 5.60386C5.52414 5.46186 5.64414 5.24652 5.88414 4.81586L6.10281 4.42386Z" stroke="white" stroke-opacity="0.8"/>
</svg>
