<svg width="14" height="14" viewBox="0 0 14 14" fill="none" xmlns="http://www.w3.org/2000/svg">
<path d="M5.10281 2.42386C5.94747 0.909189 6.36947 0.151855 7.00081 0.151855C7.63214 0.151855 8.05414 0.909189 8.89881 2.42386L9.11747 2.81586C9.35747 3.24652 9.47747 3.46186 9.66414 3.60386C9.85081 3.74586 10.0841 3.79852 10.5508 3.90386L10.9748 3.99986C12.6148 4.37119 13.4341 4.55652 13.6295 5.18386C13.8241 5.81052 13.2655 6.46452 12.1475 7.77186L11.8581 8.10986C11.5408 8.48119 11.3815 8.66719 11.3101 8.89652C11.2388 9.12652 11.2628 9.37452 11.3108 9.86986L11.3548 10.3212C11.5235 12.0659 11.6081 12.9379 11.0975 13.3252C10.5868 13.7132 9.81881 13.3592 8.28414 12.6525L7.88614 12.4699C7.45014 12.2685 7.23214 12.1685 7.00081 12.1685C6.76947 12.1685 6.55147 12.2685 6.11547 12.4699L5.71814 12.6525C4.18281 13.3592 3.41481 13.7125 2.90481 13.3259C2.39347 12.9379 2.47814 12.0659 2.64681 10.3212L2.69081 9.87052C2.73881 9.37452 2.76281 9.12652 2.69081 8.89719C2.62014 8.66719 2.46081 8.48119 2.14347 8.11052L1.85414 7.77186C0.736141 6.46519 0.177474 5.81119 0.372141 5.18386C0.567474 4.55652 1.38747 4.37052 3.02747 3.99986L3.45147 3.90386C3.91747 3.79852 4.15014 3.74586 4.33747 3.60386C4.52414 3.46186 4.64414 3.24652 4.88414 2.81586L5.10281 2.42386Z" fill="#FFD80D"/>
</svg>
