<svg width="18" height="18" viewBox="0 0 18 18" fill="none" xmlns="http://www.w3.org/2000/svg">
<g clip-path="url(#clip0_29_2459)">
<path d="M2.24991 1.12494C1.00889 1.12494 -9.15527e-05 2.13392 -9.15527e-05 3.37494V14.6249C-9.15527e-05 15.866 1.00889 16.8749 2.24991 16.8749H15.7499C16.9909 16.8749 17.9999 15.866 17.9999 14.6249V6.74994C17.9999 5.50892 16.9909 4.49994 15.7499 4.49994H2.81241C2.50303 4.49994 2.24991 4.24681 2.24991 3.93744C2.24991 3.62806 2.50303 3.37494 2.81241 3.37494H15.7499C16.3722 3.37494 16.8749 2.8722 16.8749 2.24994C16.8749 1.62767 16.3722 1.12494 15.7499 1.12494H2.24991ZM14.6249 9.56244C14.9233 9.56244 15.2094 9.68097 15.4204 9.89194C15.6314 10.1029 15.7499 10.3891 15.7499 10.6874C15.7499 10.9858 15.6314 11.272 15.4204 11.4829C15.2094 11.6939 14.9233 11.8124 14.6249 11.8124C14.3265 11.8124 14.0404 11.6939 13.8294 11.4829C13.6184 11.272 13.4999 10.9858 13.4999 10.6874C13.4999 10.3891 13.6184 10.1029 13.8294 9.89194C14.0404 9.68097 14.3265 9.56244 14.6249 9.56244Z" fill="white"/>
</g>
<defs>
<clipPath id="clip0_29_2459">
<rect width="18" height="18" fill="white"/>
</clipPath>
</defs>
</svg>
