<svg xmlns="http://www.w3.org/2000/svg" xml:space="preserve" id="Chain288_svg__Layer_1" x="0px" y="0px" class="Chain288_svg__light" style="enable-background:new 0 0 1080 1080;" version="1.1" viewBox="0 0 1080 1080">
    <g>
        <g>
            <path d="M492.9,720H0V0h492.9c169.2,0,306.3,137.1,306.3,306.2v107.5C799.2,582.9,662.1,720,492.9,720" style="fill:#AEDB01"/>
            <path d="M619.9,1080H0V720c0-198.8,161.2-360,360.1-360h259.8C818.8,360,980,521.2,980,720S818.8,1080,619.9,1080" style="fill:#B0B1AC"/>
            <path d="M799.2,407.8v6C799.2,583,662.1,720,492.8,720H0c0-99.4,40.4-189.4,105.4-254.6    c65.2-65.2,155.2-105.4,254.8-105.4h259.7C685.2,360.1,746.4,377.5,799.2,407.8" style="fill:#5D6D3C"/>
        </g>
    </g>
</svg>
